<?xml version="1.0" standalone="no"?>
<!DOCTYPE svg PUBLIC "-//W3C//DTD SVG 20010904//EN"
 "http://www.w3.org/TR/2001/REC-SVG-20010904/DTD/svg10.dtd">
<svg version="1.0" xmlns="http://www.w3.org/2000/svg"
 width="512.000000pt" height="512.000000pt" viewBox="0 0 512.000000 512.000000"
 preserveAspectRatio="xMidYMid meet">

<g transform="translate(0.000000,512.000000) scale(0.100000,-0.100000)"
fill="#000000" stroke="none">
<path d="M1375 5106 c-37 -17 -70 -52 -84 -89 -6 -16 -11 -96 -11 -178 l0
-149 -170 0 c-198 0 -247 -8 -357 -61 -148 -71 -264 -213 -308 -379 -23 -85
-22 -3717 0 -3805 43 -166 163 -313 316 -384 46 -22 111 -44 143 -50 41 -8
524 -11 1556 -11 1458 0 1499 1 1574 20 110 28 190 74 271 155 81 81 127 161
155 271 20 75 20 117 20 1894 0 1262 -3 1834 -11 1876 -39 213 -219 404 -434
459 -42 11 -110 15 -231 15 l-172 0 -4 158 c-3 144 -5 160 -27 195 -61 99
-193 101 -265 3 -19 -24 -22 -46 -26 -189 l-5 -162 -317 -3 -316 -2 -4 157
c-3 145 -5 161 -27 196 -61 99 -193 101 -265 3 -19 -24 -22 -46 -26 -189 l-5
-162 -372 -3 -372 -2 -3 164 c-3 179 -7 192 -70 239 -34 25 -113 32 -153 13z
m-95 -833 c0 -83 4 -104 23 -137 60 -107 214 -107 274 0 19 33 23 54 23 137
l0 97 375 0 375 0 0 -104 c0 -123 16 -157 92 -194 63 -31 115 -24 169 25 47
42 59 81 59 191 l0 82 320 0 320 0 0 -104 c0 -123 16 -157 92 -194 63 -31 115
-24 169 25 47 42 59 81 59 191 l0 82 163 0 c149 0 166 -2 213 -24 27 -13 67
-43 87 -67 72 -83 67 52 67 -1933 0 -1188 -4 -1803 -10 -1828 -18 -63 -70
-129 -130 -162 l-55 -31 -1495 -3 c-1661 -3 -1545 -7 -1630 65 -23 20 -53 60
-66 87 l-24 51 0 1814 c0 1391 3 1823 12 1855 15 51 108 147 158 163 19 6 108
11 198 12 l162 1 0 -97z"/>
<path d="M1375 3186 c-67 -29 -105 -106 -91 -181 9 -47 59 -102 104 -115 25
-8 240 -10 659 -8 613 3 622 3 650 24 98 73 98 195 0 268 -28 21 -37 21 -660
23 -510 2 -638 0 -662 -11z"/>
<path d="M1387 2336 c-49 -18 -64 -32 -89 -80 -37 -73 -13 -153 62 -203 l33
-23 1167 0 1167 0 33 23 c50 33 72 70 77 124 5 59 -25 117 -77 147 -35 21 -45
21 -1185 23 -944 2 -1157 0 -1188 -11z"/>
<path d="M1360 1468 c-50 -34 -72 -71 -77 -125 -5 -59 25 -117 77 -147 35 -21
42 -21 1200 -21 1158 0 1165 0 1200 21 52 30 82 88 77 147 -5 54 -27 91 -77
125 l-33 22 -1167 0 -1167 0 -33 -22z"/>
</g>
</svg>
