<svg xmlns="http://www.w3.org/2000/svg" viewBox="0 0 32 32" id="dollar-coin"><path d="M10,19.5a.5.5,0,0,0,.5.5h1A2.5,2.5,0,0,1,12,25V25a1,1,0,0,1-2,0H9a1,1,0,0,1,0-2h2.5a.5.5,0,0,0,0-1h-1a2.5,2.5,0,0,1-.5-4.95V17a1,1,0,0,1,2,0h1a1,1,0,0,1,0,2H10.5A.5.5,0,0,0,10,19.5ZM20.5,9H23a1,1,0,0,0,0-2H22a1,1,0,0,0-2,0v0a2.5,2.5,0,0,0,.5,5h1a.5.5,0,0,1,0,1H19a1,1,0,0,0,0,2h1a1,1,0,0,0,2,0V15A2.5,2.5,0,0,0,21.5,10h-1a.5.5,0,0,1,0-1ZM30,11a9,9,0,0,1-9,9,9.45,9.45,0,0,1-1.07-.08A9.63,9.63,0,0,1,20,21a9,9,0,1,1-9-9,9.63,9.63,0,0,1,1.08.07A9.45,9.45,0,0,1,12,11a9,9,0,0,1,18,0ZM18,21a7,7,0,1,0-7,7A7,7,0,0,0,18,21ZM28,11a7,7,0,0,0-14,0,7.08,7.08,0,0,0,.2,1.6,9,9,0,0,1,5.2,5.2A7.08,7.08,0,0,0,21,18,7,7,0,0,0,28,11Z" data-name="31 coin"></path></svg>