<?xml version="1.0" standalone="no"?>
<!DOCTYPE svg PUBLIC "-//W3C//DTD SVG 20010904//EN"
 "http://www.w3.org/TR/2001/REC-SVG-20010904/DTD/svg10.dtd">
<svg version="1.0" xmlns="http://www.w3.org/2000/svg"
 width="96.000000pt" height="96.000000pt" viewBox="0 0 96.000000 96.000000"
 preserveAspectRatio="xMidYMid meet">

<g transform="translate(0.000000,96.000000) scale(0.100000,-0.100000)"
fill="#000000" stroke="none">
<path d="M111 846 c-47 -26 -50 -46 -51 -284 0 -301 1 -302 185 -302 l104 0
61 -80 c33 -44 65 -80 70 -80 5 0 37 36 70 80 l61 80 104 0 c184 0 185 2 185
299 0 238 -4 262 -51 287 -39 20 -702 20 -738 0z m729 -46 c19 -19 20 -33 20
-240 0 -276 9 -260 -155 -260 l-114 0 -51 -67 c-29 -38 -55 -68 -60 -68 -5 0
-31 30 -60 67 l-51 68 -114 0 c-164 0 -155 -16 -155 260 0 207 1 221 20 240
19 19 33 20 360 20 327 0 341 -1 360 -20z"/>
<path d="M225 689 c-16 -25 21 -29 261 -27 213 3 249 5 249 18 0 13 -36 15
-252 18 -175 2 -254 -1 -258 -9z"/>
<path d="M225 569 c-16 -25 21 -29 261 -27 213 3 249 5 249 18 0 13 -36 15
-252 18 -175 2 -254 -1 -258 -9z"/>
<path d="M225 449 c-16 -25 21 -29 261 -27 213 3 249 5 249 18 0 13 -36 15
-252 18 -175 2 -254 -1 -258 -9z"/>
</g>
</svg>
