<svg xmlns="http://www.w3.org/2000/svg" width="24" height="24" fill="none" viewBox="0 0 24 24" id="notes"><path fill="#000" d="M8 10C8 9.44772 8.44772 9 9 9H15C15.5523 9 16 9.44772 16 10 16 10.5523 15.5523 11 15 11H9C8.44772 11 8 10.5523 8 10zM9 12C8.44772 12 8 12.4477 8 13 8 13.5523 8.44772 14 9 14H15C15.5523 14 16 13.5523 16 13 16 12.4477 15.5523 12 15 12H9zM8 16C8 15.4477 8.44772 15 9 15H15C15.5523 15 16 15.4477 16 16 16 16.5523 15.5523 17 15 17H9C8.44772 17 8 16.5523 8 16z"></path><path fill="#000" fill-rule="evenodd" d="M9 3C9 2.44772 8.55228 2 8 2C7.44772 2 7 2.44772 7 3C5.34315 3 4 4.34315 4 6V19C4 20.6569 5.34315 22 7 22H17C18.6569 22 20 20.6569 20 19V6C20 4.34315 18.6569 3 17 3C17 2.44772 16.5523 2 16 2C15.4477 2 15 2.44772 15 3L13 3C13 2.44772 12.5523 2 12 2C11.4477 2 11 2.44772 11 3L9 3ZM15 5H13C13 5.55228 12.5523 6 12 6C11.4477 6 11 5.55228 11 5H9C9 5.55228 8.55228 6 8 6C7.44772 6 7 5.55228 7 5C6.44772 5 6 5.44772 6 6V19C6 19.5523 6.44772 20 7 20H17C17.5523 20 18 19.5523 18 19V6C18 5.44772 17.5523 5 17 5C17 5.55228 16.5523 6 16 6C15.4477 6 15 5.55228 15 5Z" clip-rule="evenodd"></path></svg>