<svg xmlns="http://www.w3.org/2000/svg" data-name="Layer 2" viewBox="0 0 35 35" id="setting"><path d="M24.5 32.849h-14a3.236 3.236 0 0 1-2.792-1.613l-7-12.124a3.231 3.231 0 0 1 0-3.223l7-12.125A3.234 3.234 0 0 1 10.5 2.151h14a3.234 3.234 0 0 1 2.793 1.612l7 12.125a3.231 3.231 0 0 1 0 3.223l-7 12.125a3.235 3.235 0 0 1-2.793 1.613Zm-14-28.2a.727.727 0 0 0-.627.363l-7 12.124a.725.725 0 0 0 0 .725l7 12.123a.727.727 0 0 0 .627.363h14a.726.726 0 0 0 .629-.364l7-12.123a.725.725 0 0 0 0-.725l-7-12.123a.725.725 0 0 0-.628-.363Z"></path><path d="M17.5 23.862a6.362 6.362 0 1 1 6.362-6.362 6.369 6.369 0 0 1-6.362 6.362Zm0-10.224a3.862 3.862 0 1 0 3.862 3.862 3.866 3.866 0 0 0-3.862-3.862Z"></path></svg>