<svg xmlns="http://www.w3.org/2000/svg" fill-rule="evenodd" stroke-linejoin="round" stroke-miterlimit="2" clip-rule="evenodd" viewBox="0 0 32 32" id="voucher"><path d="M77,254C77.552,254 78,253.552 78,253L78,249C78,247.343 76.657,246 75,246L53,246C51.343,246 50,247.343 50,249L50,253C50,253.552 50.448,254 51,254C52.104,254 53,254.896 53,256C53,257.104 52.104,258 51,258C50.448,258 50,258.448 50,259L50,263C50,264.657 51.343,266 53,266L75,266C76.657,266 78,264.657 78,263L78,259C77.99,258.412 77.628,258.103 77,258C75.896,258 75,257.104 75,256C75,254.896 75.896,254 77,254ZM70,248L70,250C70,250.552 69.552,251 69,251C68.448,251 68,250.552 68,250L68,248L53,248C52.448,248 52,248.448 52,249C52,249 52,252.126 52,252.126C53.724,252.571 55,254.137 55,256C55,257.863 53.724,259.429 52,259.874C52,259.874 52,263 52,263C52,263.552 52.448,264 53,264L68,264L68,262C68,261.448 68.448,261 69,261C69.552,261 70,261.448 70,262L70,264C70,264 75,264 75,264C75.552,264 76,263.552 76,263L76,259.874C74.276,259.429 73,257.862 73,256C73,254.137 74.276,252.571 76,252.126L76,249C76,248.448 75.552,248 75,248L70,248ZM68,254L68,258C68,258.552 68.448,259 69,259C69.552,259 70,258.552 70,258L70,254C70,253.448 69.552,253 69,253C68.448,253 68,253.448 68,254Z" transform="translate(-48 -240)"></path></svg>