<svg xmlns="http://www.w3.org/2000/svg" width="24" height="24" fill="none" id="wallet"><path fill="#292D32" d="M5.75 10.5a.75.75 0 0 1 .75-.75h3a.75.75 0 1 1 0 1.5h-3a.75.75 0 0 1-.75-.75Z"></path><path fill="#292D32" fill-rule="evenodd" d="M4.451 5.989a.747.747 0 0 1 .27-.185l7.866-3.146a3.75 3.75 0 0 1 4.393 1.231L18.6 6.05c.027.036.05.074.07.113.216.095.42.214.613.362.26.2.493.432.692.692.427.556.608 1.205.693 1.96.068.601.08 1.33.082 2.203a2.25 2.25 0 0 1 1.33 1.26 2.3 2.3 0 0 1 .154.738c.016.235.016.519.016.848v.048c0 .329 0 .613-.016.848a2.3 2.3 0 0 1-.155.739 2.25 2.25 0 0 1-1.329 1.26c0 .633-.001 1.148-.03 1.572-.031.456-.097.86-.255 1.242a3.75 3.75 0 0 1-2.03 2.03c-.382.158-.786.224-1.242.255-.445.03-.99.03-1.666.03H8.445c-1.367 0-2.47 0-3.337-.116-.9-.122-1.658-.38-2.26-.982-.602-.602-.86-1.36-.981-2.26-.117-.867-.117-1.97-.117-3.337v-3.11c0-1.367 0-2.47.117-3.337.12-.9.38-1.658.981-2.26.45-.449.986-.707 1.603-.86Zm8.693-1.939a2.25 2.25 0 0 1 2.636.74l.738.984c-.568-.024-1.223-.024-1.973-.024h-5.65l4.249-1.7Zm6.105 7.2c-.003-.804-.016-1.413-.072-1.906-.07-.62-.199-.962-.392-1.214a2.25 2.25 0 0 0-.415-.415c-.252-.193-.594-.322-1.214-.392-.636-.072-1.466-.073-2.656-.073h-6c-1.435 0-2.437.002-3.192.103-.734.099-1.122.28-1.399.556-.277.277-.457.665-.556 1.4-.101.755-.103 1.756-.103 3.191v3c0 1.435.002 2.436.103 3.192.099.734.28 1.122.556 1.399.277.277.665.457 1.4.556.754.101 1.756.103 3.191.103h7c.71 0 1.203 0 1.59-.027.38-.026.602-.074.771-.144a2.25 2.25 0 0 0 1.218-1.218c.07-.169.118-.39.144-.77.023-.34.027-.763.027-1.341h-1.024c-.329 0-.613 0-.848-.016a2.3 2.3 0 0 1-.739-.155 2.25 2.25 0 0 1-1.218-1.218 2.3 2.3 0 0 1-.155-.74c-.016-.234-.016-.518-.016-.847v-.048c0-.329 0-.613.016-.848a2.3 2.3 0 0 1 .155-.739 2.25 2.25 0 0 1 1.218-1.218 2.3 2.3 0 0 1 .74-.155c.234-.016.518-.016.847-.016h1.023Zm-2.036 1.557a.871.871 0 0 1 .267-.045c.178-.012.41-.012.77-.012h1c.36 0 .592 0 .77.012a.871.871 0 0 1 .267.045.75.75 0 0 1 .406.406.871.871 0 0 1 .044.267c.013.178.013.41.013.77 0 .36 0 .592-.012.77a.871.871 0 0 1-.045.267.75.75 0 0 1-.406.406.871.871 0 0 1-.267.045c-.178.012-.41.012-.77.012h-1c-.36 0-.592 0-.77-.012a.871.871 0 0 1-.267-.045.75.75 0 0 1-.406-.406.871.871 0 0 1-.044-.267c-.013-.178-.013-.41-.013-.77 0-.36 0-.592.012-.77a.871.871 0 0 1 .045-.267.75.75 0 0 1 .406-.406Z" clip-rule="evenodd"></path></svg>